<svg xmlns="http://www.w3.org/2000/svg" viewBox="0 0 480 150" width="480" height="150" role="img" aria-label="most used languages" font-family="'JetBrains Mono','SFMono-Regular',Consolas,monospace">
<rect x="1" y="1" width="478" height="148" rx="14" fill="#161b22" stroke="#30363d" stroke-width="1"/>
<text x="24" y="38" font-size="15" font-weight="700" fill="#00E5FF">most used languages</text>
<clipPath id="barclip"><rect x="24" y="60" width="432" height="18" rx="9.0"/></clipPath>
<g clip-path="url(#barclip)">
<rect x="24.00" y="60" width="100.29" height="18" fill="#3572A5"/>
<rect x="123.69" y="60" width="94.75" height="18" fill="#3178c6"/>
<rect x="217.85" y="60" width="83.68" height="18" fill="#f1e05a"/>
<rect x="300.92" y="60" width="61.52" height="18" fill="#4F5D95"/>
<rect x="361.85" y="60" width="44.91" height="18" fill="#00ADD8"/>
<rect x="406.15" y="60" width="50.45" height="18" fill="#89e051"/>
</g>
<circle cx="29" cy="104" r="5.5" fill="#3572A5"/>
<text x="41" y="108" font-size="12" fill="#c9d1d9">Python <tspan fill="#8b949e">23%</tspan></text>
<circle cx="179" cy="104" r="5.5" fill="#3178c6"/>
<text x="191" y="108" font-size="12" fill="#c9d1d9">TypeScript <tspan fill="#8b949e">22%</tspan></text>
<circle cx="329" cy="104" r="5.5" fill="#f1e05a"/>
<text x="341" y="108" font-size="12" fill="#c9d1d9">JavaScript <tspan fill="#8b949e">19%</tspan></text>
<circle cx="29" cy="130" r="5.5" fill="#4F5D95"/>
<text x="41" y="134" font-size="12" fill="#c9d1d9">PHP <tspan fill="#8b949e">14%</tspan></text>
<circle cx="179" cy="130" r="5.5" fill="#00ADD8"/>
<text x="191" y="134" font-size="12" fill="#c9d1d9">Go <tspan fill="#8b949e">10%</tspan></text>
<circle cx="329" cy="130" r="5.5" fill="#89e051"/>
<text x="341" y="134" font-size="12" fill="#c9d1d9">Shell <tspan fill="#8b949e">12%</tspan></text>
</svg>
